<?xml version="1.0" standalone="no"?>
<!DOCTYPE svg PUBLIC "-//W3C//DTD SVG 20010904//EN"
 "http://www.w3.org/TR/2001/REC-SVG-20010904/DTD/svg10.dtd">
<svg version="1.0" xmlns="http://www.w3.org/2000/svg"
 width="1546.000000pt" height="1546.000000pt" viewBox="0 0 1546.000000 1546.000000"
 preserveAspectRatio="xMidYMid meet">
<metadata>
Created by potrace 1.14, written by Peter Selinger 2001-2017
</metadata>
<g transform="translate(0.000000,1546.000000) scale(0.100000,-0.100000)"
fill="#000000" stroke="none">
<path d="M14207 15454 c-1 -1 -51 -5 -112 -8 -60 -4 -130 -9 -155 -11 -25 -2
-90 -6 -145 -10 -55 -3 -120 -7 -145 -10 -25 -2 -92 -6 -150 -10 -58 -3 -130
-8 -160 -10 -30 -2 -98 -7 -150 -10 -52 -3 -113 -8 -135 -10 -22 -2 -85 -7
-140 -10 -134 -8 -237 -14 -311 -20 -33 -3 -94 -7 -135 -10 -69 -4 -148 -9
-294 -20 -33 -2 -103 -7 -155 -10 -52 -3 -117 -8 -145 -10 -27 -2 -93 -7 -145
-10 -52 -3 -120 -7 -150 -10 -86 -6 -229 -16 -300 -20 -36 -2 -96 -6 -135 -9
-38 -3 -110 -8 -160 -11 -49 -3 -119 -8 -155 -10 -114 -8 -202 -14 -300 -20
-52 -4 -115 -8 -140 -10 -25 -2 -92 -6 -150 -10 -58 -3 -121 -8 -140 -10 -19
-2 -82 -7 -140 -10 -58 -3 -130 -8 -160 -10 -30 -2 -98 -7 -150 -10 -52 -4
-115 -8 -140 -10 -25 -2 -88 -6 -140 -10 -52 -3 -120 -8 -150 -10 -30 -2 -100
-7 -155 -10 -55 -3 -120 -8 -145 -10 -25 -2 -90 -7 -145 -10 -55 -3 -122 -8
-150 -10 -27 -3 -93 -7 -145 -10 -53 -3 -118 -7 -145 -9 -28 -2 -90 -7 -140
-10 -49 -4 -119 -9 -155 -11 -36 -3 -105 -7 -155 -10 -49 -3 -115 -7 -145 -10
-55 -5 -123 -9 -295 -20 -49 -4 -117 -8 -150 -10 -33 -2 -100 -7 -150 -10 -49
-3 -117 -8 -150 -10 -183 -13 -193 -14 -450 -30 -44 -3 -105 -7 -135 -10 -30
-3 -93 -7 -140 -10 -47 -3 -114 -7 -150 -10 -244 -17 -317 -22 -445 -30 -60
-4 -130 -8 -155 -10 -25 -2 -92 -7 -150 -10 -58 -4 -121 -8 -140 -10 -19 -2
-80 -6 -135 -10 -55 -3 -125 -8 -155 -10 -51 -4 -129 -9 -300 -20 -36 -2 -96
-6 -135 -9 -38 -3 -113 -8 -165 -11 -52 -3 -115 -8 -140 -10 -25 -2 -90 -7
-145 -10 -55 -4 -122 -8 -150 -10 -51 -4 -180 -13 -295 -20 -36 -3 -101 -7
-145 -10 -44 -2 -107 -7 -140 -9 -33 -3 -103 -7 -155 -11 -52 -3 -120 -8 -150
-10 -30 -3 -98 -7 -150 -10 -52 -3 -120 -8 -150 -10 -30 -3 -98 -7 -150 -10
-52 -3 -117 -8 -145 -10 -27 -2 -90 -7 -140 -10 -49 -3 -115 -8 -145 -10 -30
-2 -100 -7 -155 -10 -55 -3 -120 -8 -145 -10 -74 -6 -221 -16 -290 -20 -75 -4
-273 -17 -310 -21 -14 -1 -35 -2 -47 -3 l-23 -1 0 -6205 0 -6205 23 -5 c12 -2
121 -25 242 -49 333 -68 356 -73 695 -142 295 -60 572 -117 630 -128 186 -37
668 -137 678 -141 8 -3 37 -8 65 -11 29 -4 55 -8 58 -10 5 -3 123 -28 504
-105 28 -6 61 -12 75 -15 14 -3 77 -16 140 -29 63 -13 130 -26 148 -30 18 -3
65 -12 105 -21 94 -20 132 -28 187 -38 14 -3 36 -8 50 -11 14 -3 36 -7 50 -10
14 -3 147 -30 295 -60 149 -31 335 -69 415 -85 80 -16 323 -66 540 -110 217
-44 409 -83 425 -86 17 -2 38 -7 47 -10 9 -3 27 -7 40 -9 13 -3 46 -9 73 -15
28 -6 61 -12 75 -15 61 -11 189 -37 225 -46 22 -5 51 -11 65 -13 14 -3 50 -10
80 -16 30 -6 66 -13 80 -16 14 -2 57 -11 95 -20 39 -8 81 -17 95 -19 14 -3 36
-7 50 -10 14 -3 35 -7 48 -10 13 -2 31 -6 40 -9 9 -3 34 -7 56 -11 21 -3 41
-7 45 -9 3 -2 22 -7 41 -10 19 -3 46 -8 60 -11 14 -3 36 -7 50 -10 14 -3 112
-23 219 -45 107 -22 205 -42 219 -45 14 -2 48 -9 76 -15 28 -6 60 -12 71 -14
11 -2 90 -19 175 -36 85 -18 166 -34 180 -37 14 -2 77 -15 140 -28 63 -13 126
-26 140 -29 14 -2 59 -12 100 -20 41 -9 109 -23 150 -31 41 -8 84 -17 95 -19
11 -3 65 -14 120 -25 55 -11 165 -34 245 -50 80 -17 156 -32 170 -35 14 -2
115 -23 225 -46 110 -23 243 -50 295 -60 52 -10 102 -21 110 -24 8 -3 31 -7
50 -10 19 -3 80 -15 135 -27 55 -11 111 -23 125 -25 14 -2 36 -7 50 -10 14 -3
36 -8 50 -10 14 -3 70 -14 125 -25 55 -12 107 -22 115 -24 186 -38 441 -90
495 -101 39 -8 80 -17 93 -20 l22 -4 0 5810 c0 3195 -3 5810 -7 5811 -5 0 -19
2 -33 5 -14 2 -83 13 -155 25 -71 11 -140 22 -152 24 -12 2 -57 9 -100 15 -43
7 -87 14 -98 16 -11 2 -65 11 -120 19 -55 8 -111 17 -125 19 -14 3 -59 10
-100 16 -41 6 -86 14 -100 16 -14 2 -56 9 -95 14 -38 6 -77 12 -85 15 -8 2
-33 6 -55 9 -22 2 -69 9 -105 15 -36 5 -85 13 -110 16 -25 3 -52 8 -60 10 -8
2 -35 7 -60 10 -25 3 -52 8 -60 10 -8 2 -37 6 -65 10 -27 3 -102 14 -165 25
-63 10 -133 21 -155 25 -74 11 -402 62 -640 101 -16 2 -43 7 -60 9 -16 2 -73
11 -125 20 -52 8 -113 17 -135 21 -47 6 -58 8 -185 28 -52 8 -115 18 -140 21
-24 4 -47 8 -50 10 -3 1 -32 6 -65 9 -33 4 -67 9 -75 11 -15 4 -54 10 -127 20
-21 3 -54 8 -73 11 -19 4 -44 8 -55 9 -11 2 -33 6 -50 9 -16 2 -50 8 -75 11
-25 3 -112 17 -195 30 -164 27 -386 61 -480 76 -33 5 -69 10 -80 13 -11 2 -45
7 -75 11 -30 4 -64 9 -75 11 -25 5 -327 53 -375 59 -19 3 -62 10 -95 16 -33 6
-71 12 -85 14 -58 7 -181 26 -260 40 -47 8 -105 17 -130 20 -25 3 -70 10 -100
15 -30 5 -73 12 -95 15 -22 3 -51 8 -65 10 -14 3 -38 7 -55 9 -16 2 -88 14
-160 25 -71 11 -218 34 -325 51 -107 17 -235 37 -285 45 -49 8 -108 16 -130
20 -23 3 -50 7 -60 9 -19 4 -84 14 -135 21 -14 2 -81 13 -150 24 -215 35 -321
51 -356 56 l-34 4 0 -619 0 -619 37 -6 c21 -4 49 -8 63 -10 14 -3 48 -7 75
-11 28 -3 57 -8 67 -9 9 -2 38 -7 65 -11 26 -3 55 -8 65 -10 9 -1 38 -6 65
-10 26 -3 55 -8 65 -10 9 -1 38 -5 65 -9 26 -3 71 -10 98 -15 28 -5 70 -11 95
-15 25 -3 54 -7 65 -9 11 -2 56 -9 100 -16 80 -11 110 -16 163 -24 15 -3 74
-12 132 -20 58 -9 114 -18 125 -20 11 -2 43 -7 70 -10 78 -11 169 -24 305 -45
69 -11 148 -23 175 -26 28 -3 57 -8 65 -10 8 -2 35 -7 60 -10 25 -3 88 -13
140 -21 52 -8 111 -17 130 -20 19 -2 67 -9 105 -15 39 -6 81 -12 95 -14 14 -2
39 -6 55 -9 17 -2 66 -10 110 -16 44 -7 87 -13 95 -15 8 -1 40 -6 70 -10 30
-4 64 -9 75 -11 11 -2 67 -11 125 -20 58 -8 119 -17 135 -20 17 -2 44 -7 60
-9 17 -2 73 -11 125 -19 52 -9 113 -18 135 -21 23 -3 50 -7 61 -9 12 -2 45 -7
74 -11 29 -4 61 -8 71 -10 9 -2 39 -6 66 -10 65 -9 87 -12 163 -24 36 -6 83
-13 105 -16 22 -3 65 -10 95 -15 30 -5 73 -12 95 -15 22 -3 51 -7 65 -10 14
-2 61 -9 105 -15 44 -6 91 -13 105 -16 14 -2 57 -9 97 -15 39 -5 80 -11 90
-13 10 -2 43 -7 73 -11 30 -4 64 -9 75 -11 10 -2 37 -6 60 -9 35 -5 118 -18
195 -30 14 -2 88 -13 165 -25 77 -11 167 -25 200 -30 89 -14 149 -24 155 -25
3 -1 31 -5 64 -9 32 -4 68 -9 80 -11 11 -2 39 -6 61 -10 22 -3 54 -7 70 -10
17 -3 48 -7 70 -10 22 -3 69 -10 105 -16 36 -6 81 -12 100 -15 19 -2 62 -9 95
-14 33 -6 75 -13 93 -16 l32 -5 0 -4470 0 -4469 -22 5 c-13 3 -122 25 -243 50
-121 25 -287 59 -370 76 -82 17 -161 33 -174 35 -12 3 -51 11 -85 19 -34 8
-79 17 -101 20 -22 3 -46 8 -54 11 -12 4 -109 24 -181 38 -14 3 -47 10 -75 16
-27 6 -66 13 -85 16 -19 3 -48 9 -65 14 -16 5 -46 12 -65 15 -19 3 -48 8 -65
11 -16 3 -46 9 -65 14 -29 7 -111 25 -215 46 -11 2 -42 8 -70 14 -27 6 -61 13
-75 15 -14 3 -56 12 -95 20 -64 13 -393 81 -440 91 -11 2 -33 7 -50 10 -16 3
-84 17 -150 31 -66 14 -129 27 -140 29 -11 2 -31 6 -45 9 -14 3 -34 7 -45 9
-18 4 -358 73 -395 81 -81 17 -345 72 -465 96 -82 17 -157 32 -165 34 -8 2
-94 19 -190 39 -96 20 -184 38 -195 40 -11 3 -96 20 -190 40 -93 19 -190 39
-215 45 -25 5 -61 13 -80 16 -19 3 -42 8 -50 10 -8 2 -31 7 -50 10 -19 3 -77
15 -129 26 -51 11 -101 22 -110 24 -9 1 -86 17 -171 35 -184 38 -507 104 -565
116 -11 2 -96 20 -190 39 -156 33 -229 48 -295 61 -14 3 -110 23 -215 45 -104
22 -203 42 -220 45 -16 3 -59 11 -95 19 -36 8 -76 17 -90 19 -14 3 -115 23
-225 46 -110 23 -262 54 -338 70 -76 15 -140 30 -142 32 -2 2 -7 2259 -10
5016 l-5 5012 33 1 c17 0 40 2 50 4 10 2 64 6 120 10 116 8 150 10 262 20 87
7 142 11 280 20 50 4 107 8 128 11 20 2 79 6 130 9 51 3 111 7 132 10 22 2 87
6 145 10 58 4 116 8 130 10 14 2 68 7 120 10 52 4 113 8 135 10 22 2 81 6 130
10 50 3 115 8 145 10 55 5 136 11 260 20 36 3 94 7 130 10 36 3 97 7 135 10
39 3 95 7 125 9 54 5 163 13 285 22 33 2 89 6 125 9 120 9 185 14 270 20 47 3
105 8 130 10 25 2 79 7 120 10 41 3 100 7 130 10 30 2 93 7 140 10 132 9 210
15 270 20 30 3 89 8 130 10 41 2 102 7 135 9 33 3 92 8 130 11 172 12 223 16
265 20 25 2 86 6 135 10 50 3 106 8 125 10 19 2 82 7 140 10 58 4 121 8 140
10 19 2 78 6 130 10 52 3 111 8 130 10 19 2 78 7 130 10 52 3 115 8 140 10 25
2 83 7 130 10 47 3 110 8 140 10 30 2 89 7 130 10 41 3 100 8 130 10 30 3 89
7 130 10 41 3 107 7 145 10 69 5 166 13 255 20 25 2 86 7 135 10 50 3 113 8
140 10 28 2 86 7 130 10 44 3 103 8 130 10 105 8 212 16 405 30 47 3 108 8
135 10 77 7 205 17 260 20 50 3 159 11 265 20 51 4 127 10 260 20 30 3 93 7
140 10 141 10 324 24 405 30 84 7 176 14 270 21 50 3 106 7 125 9 19 2 78 6
130 10 52 4 115 8 140 10 25 2 81 7 125 10 44 3 106 8 138 11 l57 5 0 -5605 0
-5606 690 0 690 0 0 6294 0 6293 -46 -1 c-25 0 -46 -1 -47 -2z"/>
</g>
</svg>
